<svg width="24" height="24" viewBox="0 0 24 24" fill="none" xmlns="http://www.w3.org/2000/svg"><rect width="24" height="24" fill="none" rx="0" ry="0"></rect><path fill-rule="evenodd" clip-rule="evenodd" d="M8 17C10.7614 17 13 14.7614 13 12C13 9.23858 10.7614 7 8 7C5.23858 7 3 9.23858 3 12C3 14.7614 5.23858 17 8 17Z" fill="#2e2e2e"></path><path fill-rule="evenodd" clip-rule="evenodd" d="M13.6464 18.3536C13.8417 18.5488 14.1583 18.5488 14.3536 18.3536C14.5488 18.1583 14.5488 17.8417 14.3536 17.6464L9.20711 12.5H21C21.2761 12.5 21.5 12.2761 21.5 12C21.5 11.7239 21.2761 11.5 21 11.5H9.20711L14.3536 6.35355C14.5488 6.15829 14.5488 5.84171 14.3536 5.64645C14.1583 5.45118 13.8417 5.45118 13.6464 5.64645L7.64645 11.6464C7.45118 11.8417 7.45118 12.1583 7.64645 12.3536L13.6464 18.3536Z" fill="#ffffff"></path></svg>